<?xml version="1.0" encoding="utf-8"?>
<!-- Generator: Adobe Illustrator 19.0.0, SVG Export Plug-In . SVG Version: 6.00 Build 0)  -->
<svg version="1.1" id="Layer_1" xmlns="http://www.w3.org/2000/svg" xmlns:xlink="http://www.w3.org/1999/xlink" x="0px" y="0px"
	 viewBox="0 0 374.7 353.8" style="enable-background:new 0 0 374.7 353.8;" xml:space="preserve">
<g id="XMLID_273_">
	<path id="XMLID_276_" style="fill:#161616;" d="M165.6,0c0,0,9.9,4.5,14.7,7.1c-0.1,1.2-0.3,2.4-0.4,3.6l-5-2.7c0,0-7-5-7.1-5.1
		c0,0,0,0,0,0"/>
	<path id="XMLID_275_" style="fill:#FBAE21;" d="M167.9,3"/>
	<g id="XMLID_272_">
		<g id="XMLID_315_">
			<path id="XMLID_316_" d="M280.7,155.1c9.3,0,15.2,0.9,15.2,14.1c0,5.9-3.3,8.5-10.3,8.5h-17.3c0,11.4,2.8,13.6,8.8,13.6
				c6.9,0,12.4-0.2,18-1v3.2c-6.1,1.7-11.8,2.1-18,2.1c-10.2-0.1-13.1-5.2-13.1-20.5C264,157.5,268.7,155.1,280.7,155.1z
				 M285.6,173.5c3.6,0,6-0.8,6-4.3c0-9-2.5-9.8-10.9-9.8c-9.2,0-12.5,0.8-12.5,14.1H285.6z"/>
			<path id="XMLID_319_" d="M303.4,155.4h4.3v27.7c0,5.2,3.2,8.5,8,8.5c6.2,0,9.5-1.6,15.2-4.4v-31.8h4.3v39.8h-2.9l-1.4-4.6
				c-4.5,2.7-9.1,5.3-15.2,5.3c-8,0-12.3-6.1-12.3-12.7V155.4z"/>
			<path id="XMLID_321_" d="M343.5,164.8c0-6.1,2.6-9.7,10.3-9.7c3.9,0,14.9,0.7,18.8,1v3.2h-18.8c-5.3,0-6.1,2-6.1,5.5v3.5
				c0,5,2.3,5.1,6.1,5.1H365c6.2,0,9.7,3.6,9.7,9.2v3.7c0,8.2-4.9,9.4-9.7,9.4c-3.7,0-17-0.9-19.8-1.2v-3.1H365
				c1.2,0,5.5,0.3,5.5-5.1v-3.7c0-2.9-1.5-5-5.5-5h-11.1c-7,0-10.3-1.6-10.3-9.3V164.8z"/>
		</g>
		<g id="XMLID_249_">
			<path id="XMLID_250_" d="M0,140.4h22c5.9,0,13.1,2.2,13.1,15.6c0,15.5-7.6,16.3-13.1,16.3c-3,0-17.3-1-17.7-1.3v24.2H0V140.4z
				 M22,168c4.6,0,8.8-1.3,8.8-12c-0.1-10.4-5.1-11.2-8.8-11.2H4.3V168H22z"/>
			<path id="XMLID_305_" d="M43.7,155.4h2.9l1.4,5c4.6-2.6,9-5.5,15.4-5.5c2.2,0,4.4,0.2,5.5,0.6v4.2c-1.2-0.3-3.4-0.5-5.5-0.5
				c-6.2,0-9.6,1.8-15.4,4.6v31.3h-4.3V155.4z"/>
			<path id="XMLID_307_" d="M90.4,155.1c13.3,0,17.2,5.6,17.2,20.8c0,14.7-4,19.7-17.2,19.7c-13.3,0-17.2-5.5-17.2-19.7
				C73.2,159.6,77.7,155.1,90.4,155.1z M90.4,191.4c8.5,0,12.9-1.7,12.9-15.5c0-14.9-4-16.6-12.9-16.6c-8.6,0-12.9,1.2-12.9,16.6
				C77.5,190.1,82.1,191.4,90.4,191.4z"/>
			<path id="XMLID_310_" d="M128.3,155.1c3.9,0,11.3,1,16.3,2v3c0,0-9.7-0.7-16.3-0.7c-5.3,0-8.8,1.4-8.8,16.3
				c0,12.8,3.1,15.8,8.8,15.8c6.9,0,16.9-1.1,16.9-1.1v3.2c-6.1,1.7-10.7,2.1-16.9,2.2c-7.4,0-13.1-2.8-13.1-20.3
				C115.1,157.9,120.6,155.1,128.3,155.1z"/>
			<path id="XMLID_312_" d="M167.8,155.1c9.3,0,15.2,0.9,15.2,14.1c0,5.9-3.3,8.5-10.3,8.5h-17.3c0,11.4,2.8,13.6,8.8,13.6
				c6.9,0,12.4-0.2,18-1v3.2c-6.1,1.7-11.8,2.1-18,2.1c-10.2-0.1-13.1-5.2-13.1-20.5C151.1,157.5,155.9,155.1,167.8,155.1z
				 M172.7,173.5c3.6,0,6-0.8,6-4.3c0-9-2.5-9.8-10.9-9.8c-9.2,0-12.5,0.8-12.5,14.1H172.7z"/>
		</g>
	</g>
	<path id="XMLID_271_" style="fill:#FBAE21;" d="M267.8,163.8c-2,2-3.9,4-5.1,6.6c-1,0.5-1.9,1-2.9,1.5c0,0,0.1,0.1,0.1,0.1
		c2-1.9,2.6-4.5,3.7-6.8c3.2-2,4.6-5.1,5.6-8.5c0.3-0.6,0.8-0.7,1.4-0.5c-0.4,1.9-0.8,3.8-1.2,5.7
		C268.8,162.5,268.3,163.1,267.8,163.8z"/>
	<path id="XMLID_257_" style="fill:#FBAE21;" d="M182.8,21.4c0-4.6-2.2-7.5-2.9-10.8c0.1-1.2,0.3-2.4,0.4-3.6
		c1.1,0.1,1.5,0.9,1.8,1.8c1.2,2.4,2.5,4.7,3.7,7.1c3.3,8,7.5,15.6,12,23c3.6,6,8.6,10.1,15.3,12.1c5.1,1.5,10.2,3.2,15.2,4.9
		c0.7,0.2,2.5,1,1.3,1.5c-2.9,1.2-0.5,3.8-2.1,5.2c-5-3.2-10-6.4-15.1-9.5c-0.9-0.6-2.2-1.6-3.2-0.8c-1.3,1-0.3,2.5,0.2,3.6
		c3,6.7,6.5,13.2,8.3,20.3c1.5,6,5,9.5,10.7,11.3c1.9,0.6,3.7,1.5,5.6,2c4.5,1.1,9.3,5.1,13,3.5c3.8-1.6,4.6-7.7,7.2-11.6
		c2.5-3.7,1.9-6.6-1-9.7c-7.7-8.6-16.4-16.1-25.1-23.6c-1.5-1.3-3.9-2-4-4.5c2-1,2.9,1,4.1,1.8c8.3,5.9,16.5,11.9,24.7,17.8
		c-0.6,1.5,0.1,2.6,1.2,3.5c7,6,6.9,12.1,2.1,19.8c-5.8,9.3-5.3,9.6,5,14.4c4.9,3.9,9.9,7.9,14.8,11.8c2,2,3.8,4.2,5.9,6
		c3.6,3.1,3.4,6.1,0.3,9.3c-1.5,1.5-3.1,2.9-4.7,4.4c-1.1,1-3,2.2-2.9,3.2c0.3,6.4-4.9,6.1-8.6,7.7c-1.7,0.7-3.3,1.4-5,2.3
		c-6.3,3.2-7,4.4-5.2,11.2c1.4,5,0.9,10.5,4.1,15c0,0-0.1-0.1-0.1-0.1c-0.2,4.6-3.3,6.8-6.9,8.9c-5.4,3.2-11.2,5.9-15.6,10.6
		c-2.3,2.4-2.9,4.5-1.4,7.5c0.7,1.3,1,2.8,1.5,4.2c0.5,1.6-0.6,2.1-1.6,2.6c-1.3,0.6-1.7-0.5-2-1.5c-0.2-0.5-0.3-1-0.6-1.4
		c-1.2-1.6-0.3-5.9-3.4-4.6c-2.7,1.1-6.4,2.6-5.4,8c1.3,6.9-0.9,14-2.9,20.6c-3.5,11.2,2.2,19.6,6.6,28.6c1.1,2.2,3.3,2,5.2,2.5
		c5.1,1.4,9.8,3.3,12.3,8.6c-4.4-2.6-8-7.1-14.3-6.5c2,5,4.9,9.1,8.1,12.9c7.2,8.6,11.5,18.5,15.7,28.7
		c4.8,11.7,11.1,22.5,21.1,30.9c5.7,4.7,6.1,12.7,8.8,19.2c0.2,0.4-0.3,1.3-0.8,1.7c-0.7,0.6-1.6,0.5-2.2-0.2
		c-1-1.1-1.9-2.3-2.8-3.5c0.4-2.6-2.4-2.8-3.3-4.4c0.2-1.9-1.3-3-2.1-4.4c-6.4-11.3-17.2-19.3-23.2-31c-1.1-2.2-3.1-3.9-4.8-5.7
		c-0.7-0.8-2-2-2.9-0.6c-1.8,2.7-2.5,0.8-3-0.7c-2.8-7.3-9.7-11.5-13.6-18c-1.2-2-3.3-3.7-6.4-4.1c-0.6,6.7-1.1,13.3-1.7,19.9
		c-0.2,0.4-0.5,0.8-0.7,1.2c-1.2-0.7-0.5-2-0.9-2.9c0.2-4.8,0.2-9.6,0.7-14.4c0.6-5.7-1.2-9.9-5.7-13.4c-4.6-3.5-7.5-8.3-8.9-14
		c-0.5-2.3-1.6-4.3-3-6.2c-1.6-2.1-3-2.5-4.2,0.3c-3.4,8.1-9.3,13.9-17.3,17.5c-1.5-0.6-2.7-1.4-1.3-3.2c1.1-1.6,2.2-3.2,3.4-4.8
		c1.2,0.2,2.3-0.3,3.2-1c4.7-3.6,6.3-9.2,9.2-13.9c0.6-1-0.9-1.5-1.8-1.9c-2.5-2.1-5.1-4.2-7.7-6.3c-2.7-2.1-3.1-4.3-1.5-7.6
		c3-6.1,6.4-11.9,9.9-17.7c1.2-2,3.3-3.8,2.4-6.7c4-7.5,1.9-15.6,2.1-23.5c0.1-2.6-0.3-4.9,3-6.5c2.8-1.4,2.4-5.2,1.7-7.7
		c-0.6-2.2-3.5-0.9-5.3-0.9c-2.3,0-4.2,2-7.1,1.6c2.9-3.2,6.5-4,10.1-4.4c2.8-0.3,3.6-1.5,3.7-4c0.2-4.5,0.3-9,1.3-13.4
		c1.1-5.2-0.4-9.1-4.1-12.5c-4.2-3.9-4.6-8.3-1.7-13c1.4-2.3,1.5-4.6,0.8-7.1c-0.9-3-1.4-6.1-2.1-9.2c0.5-3.1,0.9-6.2,1.4-9.3
		c-0.3,0-0.5-0.1-0.8-0.1c-0.6,3.1-1.1,6.3-1.7,9.4c-2.7-0.3-1.8-2.6-1.8-3.9c-0.3-5.2,0.6-10.3,2-15.2c1-3.4,1.3-6.8,2-10.2
		c1.6-7.5-1.1-14-3.7-20.6c-1.1-2.9-2.3-5.8-2.9-8.9c-1.3-6.1-3.7-11.6-7.2-16.8c-5.1-7.5-9.7-15.4-14.5-23.2
		c-0.6-0.9-1.5-1.8-1-3.1c3,0.7,5,3,7.1,5.1 M176,8.8 M246.1,123.8c-0.6,1.7-1.5,3.2-2.8,4.4c-0.7-1.7-1.3-3.4-2-5.1
		c-3.1-7.4-6.9-14.7,1.3-21.4c2.3-1.9,1.2-3.2-1.5-3.9c-5.6-1.7-10.9-4-16.2-6.6c-6.4-3.1-10.4-7.9-12.3-14.8c-1.3-4.6-3-9.2-5-13.6
		c-1.6-3.6-3.5-7.2-7.4-10c-0.1,4-1.5,7.9,1,10.7c6.4,7,5.6,14.5,2.3,22.5c-0.7,1.7-1,3.5-1.5,5.3c-1.7,7.3-3.3,14.6-0.4,22
		c1.4,3.7,1.3,7.5-1.3,10.9c-0.9,1.2-1.7,2.9-0.5,4.1c6.9,7.1,9.4,17.1,16.4,24.2c5.6-5.3,10.8-11.6,19.3-12.2
		c5.3-0.2,10.6-0.1,15.9-0.6c3.8-0.3,7.6-1.4,9.9-4.8c3.6-5.2,6.9-10.5,10.3-15.8c0.7-1.1,1.5-2.2,0.2-3.5
		c-4.2-3.9-7.8-8.6-13.1-11.2c-2.5-2-5.7-2.6-8.6-3.8c-1.3-0.5-2-0.2-3,0.8c-5.1,5.6-8.1,11.5-3.2,18.8
		C245,121.4,245.5,122.7,246.1,123.8z M204.8,223.9c5.6-9.4,11.1-19,17.5-28c6.2-1.9,7.2-3.5,5.4-8.1c0.8-1.3,1.6-2.6,2.4-3.9
		c0.8,1.6,1.5,3.1,2.4,4.9c5.2-5.7,11.9-8.8,18.1-12.7c1.3-0.8,3.5-1.3,3.1-3.4c-1-5.5-1.6-11.2-3.9-16.8c-2,1.5-2.6,3.8-4.8,4.2
		c-2,0.4-3.9,0.9-5.9,1.1c-10.5,1.3-16.8,6.6-18.7,17.5c-1.1,6.4-4.9,12-8.4,18.2c-1-6.5,1.8-12.1,0.7-18.5
		c-2.2,1.7-3.1,3.7-3.9,5.6c-2.4,5.4-3.8,11-5,16.7c-2.1,10.7-6.1,20.3-13.9,28.3c-5.3,5.4-5.1,5.5,1.2,10.1c0.6,0.5,1.5,0.7,2.2,1
		c0.5,1.2,1.4,2.5,2.3,0.7C198.7,235.1,203.1,230.2,204.8,223.9z M219,211.2c-6.3,10.7-12.6,21.3-18.9,32c-0.7,1.1-0.8,2.2,0.4,3.1
		c5.9,4.6,11.7,9.4,19.8,9.7c2.6,0.1,3.5-0.5,2.1-3c-0.7-1.3-1.4-2.7-1.9-4c-2.2-5.8-5.5-11.2-3.7-18.1
		C218.3,224.6,219.8,218.2,219,211.2z M225.7,260.3c-3.6,6.2-2.8,11.6,3,15.3c5.5,3.5,10.6,7.4,14.1,13c1.1,1.7,2.2,3.4,4.1,6.2
		C245.8,288.7,233.3,269,225.7,260.3z M226.2,156.6c8.8,2.3,15-3.2,22-6.2c0.9-0.4,3.4-1.7,0.7-3.1
		C243.1,144.5,229.5,150.1,226.2,156.6z M208.5,256.8c2.3,6.4,7.5,9.1,12.3,12.3c0.3,0.2,1.1,0.3,1.3,0.1c1.4-1.7,0.6-3.8,0.6-5.7
		c-0.1-1.5,0.6-4-1.6-4.1C216.9,259.2,213.2,257.1,208.5,256.8z M205.3,163.7c4-1.4,7.3-3.3,7.5-6.7c0.3-3.6-2.8-6.3-5.9-9
		C206.4,153.4,205.9,158.1,205.3,163.7z M275.1,118.9c-1.6,4.1-3.1,7.8-4.8,12.2c4.3-1.4,8.1-2.9,9.3-6.5
		C280.3,122.4,277,120.9,275.1,118.9z M199.4,70.1c-0.7,6.8-1.3,13.2-2,20.2C202.4,83,203.4,74.1,199.4,70.1z M213.6,173.5
		c1.7-2.4,3.2-4.3,4.5-6.3c0.9-1.4,0.1-2.5-0.8-3.5c-0.5-0.7-1.2-0.3-1.6,0.3C213.8,166.6,211.7,169.1,213.6,173.5z M269.8,131.5
		c-0.1-0.1-0.2-0.3-0.3-0.3c-0.1,0-0.3,0.2-0.4,0.3c0.1,0.1,0.2,0.3,0.3,0.3C269.5,131.8,269.7,131.6,269.8,131.5z"/>
	<path id="XMLID_256_" style="fill:#070705;" d="M216.5,299c0.4,0.9-0.3,2.2,0.9,2.9c0.2-0.4,0.5-0.8,0.7-1.2
		c4.8,4.9,14.8,11.2,18,13.7c13.2,10.4,26.5,20.6,39.7,30.9c0.8,1.7,3.7,1.8,3.3,4.4c-13.1-7.6-26.3-15.3-39.4-22.9
		c-1.9-1.1-4.8-2.6-6.7-3.6c-0.4-0.9,0.8,0.2,0,0c-18.2-10.9-37.5-22.4-55.7-33.3c-8.3-4.9-16.6-9.9-24.9-14.7
		c-2.3-1.3-3.2-2.2-1.4-4.8c13.8-21,27.4-42.1,41.2-63.1c0.4-0.7,1.2-1.1,1.8-1.6c0.9,2.8-1.2,4.7-2.4,6.7
		c-3.5,5.8-6.9,11.6-9.9,17.7c-1.6,3.3-1.2,5.5,1.5,7.6c2.6,2.1,5.1,4.2,7.7,6.3c-3.6,5.6-7.1,11.2-10.7,16.8
		c-1.1,1.6-2.2,3.2-3.4,4.8c-1.3,1.8-0.2,2.6,1.3,3.2C190.8,279,203.6,289,216.5,299z"/>
	<path id="XMLID_255_" style="fill:#060504;" d="M224.1,43.7c-6.6-4.8-38.3-27.7-38.3-27.7c-1.2-2.4-3.1-6-4.3-8.4
		c0,0,3.4,1.9,4.7,2.6c37.4,20,74.7,40.1,112.1,60c3.3,1.8,4.2,2.9,1.7,6.4c-8.2,11.9-16,24.1-24,36.2c-4.9-3.9-9.9-7.9-14.8-11.8
		c4-6.3,8.1-12.5,12.1-18.8c1.4-2.1,1.5-3.7-0.9-5.3c-6.6-4.4-13-9.1-19.5-13.6c-8.2-6-16.4-12-24.7-17.8
		C227.1,44.7,226.2,42.7,224.1,43.7"/>
	<path id="XMLID_254_" style="fill:#080603;" d="M230.1,183.9c-0.8,1.3-1.6,2.6-2.4,3.9c-2.2,2.4-3.9,5.2-5.4,8.1
		c-6.4,9-11.9,18.5-17.5,28c-5,4.6-7.6,10.9-11.4,16.2c-0.7-0.3-1.6-0.6-2.2-1c-6.3-4.6-6.4-4.8-1.2-10.1
		c7.8-7.9,11.7-17.6,13.9-28.3c1.1-5.7,2.6-11.4,5-16.7c0.8-1.9,1.7-3.8,3.9-5.6c1.2,6.5-1.7,12.1-0.7,18.5
		c3.5-6.2,7.3-11.8,8.4-18.2c1.9-10.9,8.2-16.2,18.7-17.5c2-0.3,3.9-0.7,5.9-1.1C240.1,168,235.1,175.9,230.1,183.9z"/>
	<path id="XMLID_253_" style="fill:#060504;" d="M235.8,140.4c2.5-4.1,4.9-8.1,7.4-12.2c1.3-1.2,2.2-2.7,2.8-4.4
		c4.3-6.4,8.6-12.9,13-19.3c5.3,2.6,8.9,7.3,13.1,11.2c1.4,1.3,0.6,2.3-0.2,3.5c-3.4,5.3-6.7,10.6-10.3,15.8
		c-2.3,3.4-6.2,4.5-9.9,4.8C246.4,140.3,241.1,140.2,235.8,140.4z"/>
	<path id="XMLID_252_" style="fill:#080603;" d="M226.2,156.6c3.3-6.6,16.9-12.2,22.7-9.3c2.7,1.4,0.2,2.7-0.7,3.1
		C241.2,153.4,235,159,226.2,156.6z"/>
	<path id="XMLID_251_" style="fill:#FEF5E4;" d="M269.8,131.5c-0.1,0.1-0.3,0.3-0.4,0.3c-0.1,0-0.2-0.2-0.3-0.3
		c0.1-0.1,0.3-0.3,0.4-0.3C269.6,131.1,269.7,131.3,269.8,131.5z"/>
</g>
</svg>
